<svg xmlns="http://www.w3.org/2000/svg" id="Layer_1" x="0" y="0" version="1.1" viewBox="0 0 128 128" xml:space="preserve" width="64" height="64"><path fill="#bbe5ff" d="M98,18.8c0-0.1,0-0.1,0-0.2C96.8,9.8,89.8,2.8,81.1,1.5C76.4,0.8,71.9,1.8,68.2,4c-2.8,1.7-6.3,1.6-9.2-0.1 c-3.6-2.1-7.9-3-12.4-2.4c-8.4,1.1-15.3,7.5-17,15.7c-0.1,0.7-0.3,1.4-0.3,2.1c-0.3,3.4-2.7,6.3-5.9,7.6 c-7.2,3-12.2,10.1-12.2,18.4V124c0,1.7,1.3,3,3,3h100c1.7,0,3-1.3,3-3V45.3c0-8.6-5.4-15.9-13-18.7C100.8,25.3,98.4,22.3,98,18.8z"/><path fill="#444b54" stroke="#444b54" stroke-linecap="round" stroke-linejoin="round" stroke-miterlimit="10" stroke-width="6" d="M50 14A7 7 0 1 0 50 28 7 7 0 1 0 50 14zM31.1 38.3A7 7 0 1 0 31.1 52.3 7 7 0 1 0 31.1 38.3zM96.9 38.3A7 7 0 1 0 96.9 52.3 7 7 0 1 0 96.9 38.3zM78 14A7 7 0 1 0 78 28 7 7 0 1 0 78 14z"/><path fill="#444b54" d="M81.6,61L81.6,61c-2.6,0-4.6-2.1-4.6-4.6l0,0c0-7-5.4-13-12.3-13.4C57.2,42.6,51,49,51,56.4l0,0 c0,2.6-2.1,4.6-4.6,4.6h0c-7,0-13,5.4-13.4,12.3C32.6,80.8,38.6,87,46,87h36c7.4,0,13.4-6.2,13-13.7C94.6,66.4,88.6,61,81.6,61z"/></svg>