<svg viewBox="0 0 512 512" xmlns="http://www.w3.org/2000/svg"><path d="m215.828125 64.265625c-83.570313 0-151.5625 67.992187-151.5625 151.566406s67.992187 151.566407 151.566406 151.566407 151.566407-67.992188 151.566407-151.566407-67.992188-151.566406-151.570313-151.566406zm.003906 273.136719c-67.03125 0-121.566406-54.535156-121.566406-121.566406 0-67.035157 54.535156-121.570313 121.5625-121.570313 67.035156 0 121.570313 54.535156 121.570313 121.566406s-54.535157 121.570313-121.566407 121.570313zm0 0"/><path d="m495.84375 417.824219-93.398438-93.394531c19.050782-32.617188 29.21875-69.820313 29.21875-108.59375 0-57.652344-22.449218-111.855469-63.214843-152.617188-40.765625-40.769531-94.96875-63.21875-152.621094-63.21875-57.648437 0-111.847656 22.449219-152.613281 63.214844s-63.214844 94.96875-63.214844 152.617187c0 57.652344 22.449219 111.851563 63.214844 152.617188s94.964844 63.214843 152.613281 63.214843c38.777344 0 75.984375-10.167968 108.597656-29.222656l93.398438 93.402344c10.753906 10.753906 24.882812 16.128906 39.007812 16.128906 14.128907 0 28.253907-5.375 39.011719-16.128906 10.417969-10.421875 16.15625-24.273438 16.15625-39.011719 0-14.734375-5.738281-28.585937-16.15625-39.007812zm-465.84375-201.992188c0-102.46875 83.363281-185.832031 185.828125-185.832031 102.472656 0 185.835937 83.363281 185.835937 185.832031s-83.363281 185.832031-185.835937 185.832031c-102.464844 0-185.828125-83.363281-185.828125-185.832031zm444.628906 258.796875c-9.8125 9.8125-25.78125 9.8125-35.59375 0l-89.410156-89.414062c6.539062-5.1875 12.832031-10.773438 18.824219-16.765625 5.992187-5.992188 11.578125-12.28125 16.765625-18.824219l89.414062 89.414062c4.753906 4.753907 7.371094 11.070313 7.371094 17.792969 0 6.722657-2.617188 13.042969-7.371094 17.796875zm0 0"/><path d="m215.832031 187.492188c-45.460937 0-82.445312 36.984374-82.445312 82.445312 0 8.03125 2.320312 15.828125 6.71875 22.554688 7.652343 11.691406 20.554687 18.675781 34.507812 18.675781 10.140625 0 17.964844-2.320313 24.871094-4.367188 5.667969-1.679687 10.5625-3.128906 16.347656-3.128906 5.789063 0 10.679688 1.449219 16.347657 3.128906 6.902343 2.046875 14.730468 4.367188 24.867187 4.367188 13.960937 0 26.863281-6.984375 34.519531-18.683594 4.390625-6.714844 6.710938-14.511719 6.710938-22.546875 0-45.460938-36.984375-82.445312-82.445313-82.445312zm50.628907 88.570312c-2.09375 3.195312-5.613282 5.101562-9.414063 5.101562-5.785156 0-10.679687-1.449218-16.34375-3.128906-6.90625-2.042968-14.730469-4.363281-24.871094-4.363281-10.136719 0-17.964843 2.320313-24.867187 4.363281-5.667969 1.679688-10.5625 3.128906-16.351563 3.128906-3.796875 0-7.316406-1.90625-9.402343-5.097656-1.195313-1.828125-1.824219-3.945312-1.824219-6.128906 0-28.921875 23.527343-52.449219 52.445312-52.449219 28.921875 0 52.445313 23.527344 52.445313 52.449219 0 2.183594-.628906 4.304688-1.816406 6.125zm0 0"/><path d="m148.890625 173.710938c3.9375 0 7.808594-1.601563 10.597656-4.402344 2.800781-2.789063 4.402344-6.660156 4.402344-10.597656 0-3.949219-1.601563-7.820313-4.402344-10.609376-2.789062-2.792968-6.660156-4.390624-10.597656-4.390624-3.949219 0-7.820313 1.597656-10.609375 4.390624-2.792969 2.789063-4.390625 6.660157-4.390625 10.609376 0 3.9375 1.597656 7.808593 4.390625 10.597656 2.789062 2.800781 6.660156 4.402344 10.609375 4.402344zm0 0"/><path d="m192.621094 150.5c3.949218 0 7.820312-1.601562 10.609375-4.390625 2.789062-2.800781 4.390625-6.660156 4.390625-10.609375s-1.601563-7.808594-4.390625-10.609375c-2.789063-2.789063-6.660157-4.390625-10.609375-4.390625-3.941406 0-7.808594 1.601562-10.601563 4.390625-2.789062 2.800781-4.398437 6.660156-4.398437 10.609375s1.609375 7.808594 4.398437 10.609375c2.789063 2.789063 6.660157 4.390625 10.601563 4.390625zm0 0"/><path d="m239.039062 150.5c3.949219 0 7.8125-1.601562 10.609376-4.390625 2.792968-2.800781 4.390624-6.660156 4.390624-10.609375s-1.597656-7.808594-4.390624-10.609375c-2.796876-2.789063-6.660157-4.390625-10.609376-4.390625-3.949218 0-7.820312 1.601562-10.609374 4.390625-2.789063 2.800781-4.390626 6.660156-4.390626 10.609375s1.601563 7.808594 4.390626 10.609375c2.800781 2.789063 6.660156 4.390625 10.609374 4.390625zm0 0"/><path d="m282.78125 173.710938c3.9375 0 7.808594-1.601563 10.597656-4.402344 2.792969-2.789063 4.402344-6.660156 4.402344-10.597656 0-3.949219-1.609375-7.820313-4.402344-10.609376-2.789062-2.792968-6.648437-4.390624-10.597656-4.390624-3.953125 0-7.820312 1.597656-10.609375 4.390624-2.792969 2.789063-4.390625 6.660157-4.390625 10.609376 0 3.9375 1.597656 7.808593 4.390625 10.597656 2.789063 2.800781 6.65625 4.402344 10.609375 4.402344zm0 0"/></svg>