<svg viewBox="0 0 512.001 512" xmlns="http://www.w3.org/2000/svg"><path d="m495.839844 417.824219-101.84375-101.847657c-5.855469-5.855468-15.355469-5.855468-21.214844 0-5.855469 5.859376-5.855469 15.355469 0 21.214844l-35.589844 35.589844c-5.855468-5.855469-15.355468-5.855469-21.214844 0-5.855468 5.855469-5.855468 15.355469 0 21.214844l101.847657 101.847656c10.753906 10.753906 24.878906 16.128906 39.007812 16.128906 14.128907 0 28.253907-5.375 39.011719-16.128906 10.417969-10.421875 16.15625-24.273438 16.15625-39.011719 0-14.734375-5.738281-28.585937-16.160156-39.007812zm0 0" fill="#7fe881"/><path d="m495.839844 417.824219-101.84375-101.847657c-5.855469-5.855468-15.355469-5.855468-21.214844 0-5.855469 5.859376-5.855469 15.355469 0 21.214844l-17.78125 17.78125 140.855469 140.855469c10.410156-10.421875 16.144531-24.265625 16.144531-38.996094 0-14.734375-5.738281-28.585937-16.160156-39.007812zm0 0" fill="#1fbf66"/><path d="m368.449219 63.214844c-40.765625-40.765625-94.96875-63.214844-152.621094-63.214844-57.648437 0-111.847656 22.449219-152.613281 63.214844s-63.214844 94.964844-63.214844 152.617187c0 57.652344 22.449219 111.851563 63.214844 152.617188s94.964844 63.21875 152.613281 63.21875c57.652344 0 111.855469-22.453125 152.621094-63.21875s63.214843-94.964844 63.214843-152.617188c0-57.652343-22.449218-111.851562-63.214843-152.617187zm0 0" fill="#1fbf66"/><path d="m368.449219 63.214844c-40.765625-40.765625-94.96875-63.214844-152.621094-63.214844v431.667969c57.652344 0 111.855469-22.453125 152.621094-63.21875s63.214843-94.964844 63.214843-152.617188c0-57.652343-22.449218-111.851562-63.214843-152.617187zm0 0" fill="#00884a"/><path d="m215.828125 64.265625c-83.570313 0-151.5625 67.992187-151.5625 151.566406s67.992187 151.566407 151.566406 151.566407 151.566407-67.992188 151.566407-151.566407-67.992188-151.566406-151.570313-151.566406zm0 0" fill="#d7e9fd"/><path d="m215.828125 64.265625v303.136719h.003906c83.574219 0 151.566407-67.996094 151.566407-151.570313s-67.992188-151.566406-151.570313-151.566406zm0 0" fill="#b4dafe"/><g fill="#7cc8f0"><path d="m215.832031 187.492188c-45.460937 0-82.449219 36.980468-82.449219 82.441406 0 8.035156 2.324219 15.832031 6.722657 22.558594 7.652343 11.691406 20.554687 18.675781 34.511719 18.675781 10.136718 0 17.964843-2.320313 24.867187-4.367188 5.667969-1.679687 10.5625-3.128906 16.351563-3.128906 5.785156 0 10.679687 1.449219 16.34375 3.128906 6.90625 2.046875 14.730468 4.367188 24.871093 4.367188 13.957031 0 26.859375-6.984375 34.511719-18.683594 4.394531-6.71875 6.714844-14.515625 6.714844-22.550781 0-45.460938-36.984375-82.441406-82.445313-82.441406zm0 0"/><path d="m148.886719 173.703125c-3.949219 0-7.808594-1.601563-10.609375-4.394531-2.789063-2.785156-4.390625-6.65625-4.390625-10.605469 0-3.941406 1.601562-7.8125 4.390625-10.601563 2.789062-2.792968 6.660156-4.398437 10.609375-4.398437 3.953125 0 7.8125 1.605469 10.601562 4.398437 2.800781 2.789063 4.398438 6.648438 4.398438 10.601563 0 3.949219-1.601563 7.820313-4.398438 10.605469-2.792969 2.792968-6.648437 4.394531-10.601562 4.394531zm0 0"/><path d="m192.628906 150.503906c-3.949218 0-7.820312-1.601562-10.609375-4.402344-2.792969-2.789062-4.390625-6.660156-4.390625-10.597656 0-3.953125 1.597656-7.820312 4.390625-10.613281 2.789063-2.789063 6.660157-4.386719 10.609375-4.386719 3.949219 0 7.808594 1.597656 10.597656 4.386719 2.800782 2.792969 4.402344 6.660156 4.402344 10.613281 0 3.9375-1.601562 7.808594-4.402344 10.597656-2.789062 2.800782-6.648437 4.402344-10.597656 4.402344zm0 0"/></g><path d="m239.035156 150.503906c-3.949218 0-7.808594-1.601562-10.597656-4.402344-2.800781-2.789062-4.402344-6.660156-4.402344-10.597656 0-3.953125 1.601563-7.820312 4.402344-10.613281 2.789062-2.789063 6.648438-4.386719 10.597656-4.386719 3.953125 0 7.820313 1.597656 10.613282 4.386719 2.789062 2.792969 4.386718 6.660156 4.386718 10.613281 0 3.9375-1.597656 7.808594-4.386718 10.597656-2.792969 2.800782-6.660157 4.402344-10.613282 4.402344zm0 0" fill="#00abe9"/><path d="m282.777344 173.703125c-3.949219 0-7.820313-1.601563-10.609375-4.394531-2.789063-2.785156-4.390625-6.65625-4.390625-10.605469s1.601562-7.8125 4.390625-10.601563c2.789062-2.792968 6.660156-4.398437 10.609375-4.398437 3.949218 0 7.808594 1.605469 10.601562 4.398437 2.800782 2.789063 4.398438 6.648438 4.398438 10.601563 0 3.949219-1.601563 7.820313-4.398438 10.605469-2.792968 2.792968-6.652344 4.394531-10.601562 4.394531zm0 0" fill="#00abe9"/><path d="m215.832031 187.492188s0 0-.003906 0v116.179687h.003906c5.785157 0 10.679688 1.449219 16.347657 3.128906 6.902343 2.046875 14.730468 4.367188 24.867187 4.367188 13.960937 0 26.859375-6.984375 34.515625-18.683594 4.394531-6.71875 6.714844-14.515625 6.714844-22.550781 0-45.460938-36.984375-82.441406-82.445313-82.441406zm0 0" fill="#00abe9"/></svg>