<svg viewBox="-34 0 512 512" xmlns="http://www.w3.org/2000/svg"><path d="m378.65625 64.96875c-41.894531-41.894531-97.597656-64.96875-156.84375-64.96875-59.25 0-114.949219 23.074219-156.84375 64.96875s-64.96875 97.59375-64.96875 156.84375c0 59.246094 23.070312 114.945312 64.964844 156.839844l116.816406 116.816406c10.660156 10.660156 24.875 16.53125 40.03125 16.53125 15.152344 0 29.367188-5.871094 40.023438-16.527344l116.820312-116.816406c41.894531-41.894531 64.964844-97.597656 64.964844-156.84375 0-59.25-23.070313-114.953125-64.964844-156.84375zm-21.214844 292.472656-116.820312 116.816406c-4.992188 4.992188-11.671875 7.742188-18.808594 7.742188-7.140625 0-13.824219-2.75-18.816406-7.742188l-116.816406-116.816406c-36.230469-36.230468-56.179688-84.398437-56.179688-135.628906 0-51.234375 19.953125-99.402344 56.183594-135.632812 36.226562-36.226563 84.394531-56.179688 135.628906-56.179688s99.402344 19.953125 135.628906 56.179688c74.789063 74.785156 74.789063 196.472656 0 271.261718zm0 0"/><path d="m221.8125 186.308594c-45.460938 0-82.445312 36.984375-82.445312 82.445312 0 8.035156 2.320312 15.835938 6.714843 22.550782 7.652344 11.695312 20.554688 18.679687 34.515625 18.679687 10.136719 0 17.964844-2.320313 24.871094-4.367187 5.664062-1.675782 10.558594-3.128907 16.34375-3.128907s10.679688 1.453125 16.347656 3.128907c6.90625 2.046874 14.730469 4.367187 24.867188 4.367187 13.957031 0 26.859375-6.980469 34.515625-18.679687 4.394531-6.714844 6.71875-14.511719 6.71875-22.550782 0-45.460937-36.988281-82.445312-82.449219-82.445312zm50.628906 88.566406c-2.09375 3.199219-5.613281 5.109375-9.414062 5.109375-5.785156 0-10.679688-1.453125-16.34375-3.128906-6.90625-2.046875-14.734375-4.367188-24.871094-4.367188s-17.964844 2.320313-24.867188 4.367188c-5.667968 1.675781-10.5625 3.128906-16.347656 3.128906-3.800781 0-7.320312-1.910156-9.410156-5.105469-1.191406-1.820312-1.820312-3.9375-1.820312-6.125 0-28.917968 23.527343-52.445312 52.445312-52.445312s52.449219 23.527344 52.449219 52.445312c0 2.1875-.632813 4.304688-1.820313 6.121094zm0 0"/><path d="m154.871094 172.519531c3.949218 0 7.808594-1.597656 10.601562-4.390625 2.796875-2.800781 4.398438-6.660156 4.398438-10.609375 0-3.941406-1.601563-7.808593-4.398438-10.597656-2.792968-2.800781-6.660156-4.402344-10.601562-4.402344-3.949219 0-7.820313 1.601563-10.609375 4.402344-2.789063 2.789063-4.390625 6.648437-4.390625 10.597656s1.601562 7.820313 4.390625 10.609375c2.789062 2.792969 6.660156 4.390625 10.609375 4.390625zm0 0"/><path d="m198.601562 149.320312c3.949219 0 7.820313-1.601562 10.609376-4.398437 2.789062-2.792969 4.398437-6.660156 4.398437-10.601563 0-3.949218-1.609375-7.820312-4.398437-10.609374-2.789063-2.789063-6.660157-4.390626-10.609376-4.390626-3.949218 0-7.8125 1.601563-10.601562 4.390626-2.789062 2.789062-4.398438 6.660156-4.398438 10.609374 0 3.949219 1.609376 7.808594 4.398438 10.601563 2.789062 2.789063 6.660156 4.398437 10.601562 4.398437zm0 0"/><path d="m245.019531 149.320312c3.953125 0 7.8125-1.601562 10.601563-4.398437 2.800781-2.792969 4.398437-6.652344 4.398437-10.601563 0-3.949218-1.597656-7.820312-4.398437-10.609374-2.789063-2.789063-6.648438-4.390626-10.601563-4.390626-3.949219 0-7.820312 1.601563-10.609375 4.390626-2.789062 2.789062-4.390625 6.660156-4.390625 10.609374 0 3.949219 1.601563 7.808594 4.390625 10.601563 2.800782 2.796875 6.660156 4.398437 10.609375 4.398437zm0 0"/><path d="m288.761719 172.519531c3.9375 0 7.808593-1.597656 10.597656-4.390625 2.800781-2.789062 4.402344-6.660156 4.402344-10.609375s-1.601563-7.808593-4.402344-10.597656c-2.789063-2.800781-6.660156-4.402344-10.597656-4.402344-3.949219 0-7.820313 1.601563-10.609375 4.402344-2.792969 2.789063-4.390625 6.648437-4.390625 10.597656s1.597656 7.820313 4.390625 10.609375c2.789062 2.792969 6.660156 4.390625 10.609375 4.390625zm0 0"/></svg>