<svg viewBox="-34 0 512 512" xmlns="http://www.w3.org/2000/svg"><path d="m378.65625 64.96875c-41.894531-41.898438-97.597656-64.96875-156.84375-64.96875-59.25 0-114.949219 23.070312-156.84375 64.96875-41.894531 41.894531-64.96875 97.59375-64.96875 156.84375 0 59.246094 23.070312 114.945312 64.964844 156.839844l116.816406 116.816406c10.660156 10.660156 24.875 16.53125 40.027344 16.53125 15.15625 0 29.371094-5.871094 40.027344-16.53125l116.820312-116.8125c41.894531-41.894531 64.964844-97.597656 64.964844-156.847656 0-59.246094-23.070313-114.949219-64.964844-156.839844zm-100.503906 81.945312c2.792968-2.792968 6.660156-4.390624 10.601562-4.390624 3.949219 0 7.820313 1.597656 10.609375 4.390624 2.789063 2.800782 4.390625 6.660157 4.390625 10.609376 0 3.949218-1.601562 7.808593-4.390625 10.609374-2.789062 2.789063-6.660156 4.390626-10.609375 4.390626-3.9375 0-7.808594-1.601563-10.601562-4.390626-2.796875-2.789062-4.398438-6.660156-4.398438-10.609374 0-3.949219 1.601563-7.820313 4.398438-10.609376zm-43.738282-23.199218c2.789063-2.800782 6.660157-4.402344 10.601563-4.402344 3.949219 0 7.820313 1.601562 10.609375 4.402344 2.789062 2.789062 4.398438 6.648437 4.398438 10.597656 0 3.953125-1.609376 7.820312-4.398438 10.613281-2.789062 2.789063-6.660156 4.386719-10.609375 4.386719-3.941406 0-7.8125-1.597656-10.601563-4.386719-2.789062-2.792969-4.398437-6.660156-4.398437-10.613281 0-3.949219 1.609375-7.808594 4.398437-10.597656zm-46.421874 0c2.804687-2.800782 6.660156-4.402344 10.613281-4.402344 3.949219 0 7.820312 1.601562 10.609375 4.402344 2.789062 2.789062 4.390625 6.648437 4.390625 10.597656 0 3.953125-1.601563 7.820312-4.390625 10.613281-2.789063 2.789063-6.660156 4.386719-10.609375 4.386719-3.953125 0-7.8125-1.597656-10.613281-4.386719-2.789063-2.792969-4.386719-6.660156-4.386719-10.613281 0-3.949219 1.597656-7.808594 4.386719-10.597656zm-43.726563 23.199218c2.789063-2.792968 6.660156-4.390624 10.597656-4.390624 3.949219 0 7.820313 1.597656 10.609375 4.390624 2.792969 2.800782 4.390625 6.660157 4.390625 10.609376 0 3.949218-1.597656 7.808593-4.390625 10.609374-2.789062 2.789063-6.660156 4.390626-10.609375 4.390626-3.9375 0-7.808593-1.601563-10.597656-4.390626-2.792969-2.789062-4.390625-6.660156-4.390625-10.609374 0-3.949219 1.597656-7.820313 4.390625-10.609376zm153.273437 144.390626c-7.652343 11.695312-20.554687 18.679687-34.511718 18.679687-10.136719 0-17.964844-2.320313-24.867188-4.367187-5.667968-1.675782-10.5625-3.128907-16.351562-3.128907-5.785156 0-10.675782 1.453125-16.34375 3.128907-6.90625 2.046874-14.730469 4.367187-24.871094 4.367187-13.957031 0-26.859375-6.984375-34.511719-18.679687-4.394531-6.714844-6.71875-14.515626-6.71875-22.550782 0-45.460937 36.984375-82.445312 82.445313-82.445312 45.460937 0 82.449218 36.984375 82.449218 82.445312.003907 8.035156-2.320312 15.835938-6.71875 22.550782zm0 0"/></svg>